<svg fill="#dbf2ff" xmlns="http://www.w3.org/2000/svg"  viewBox="0 0 64 64" width="128px" height="128px"><path d="M 13 6 C 9.140625 6 6 9.140625 6 13 L 6 51 C 6 54.859375 9.140625 58 13 58 L 51 58 C 54.859375 58 58 54.859375 58 51 L 58 13 C 58 9.140625 54.859375 6 51 6 Z M 13 8 L 51 8 C 53.757813 8 56 10.242188 56 13 L 56 51 C 56 53.757813 53.757813 56 51 56 L 13 56 C 10.242188 56 8 53.757813 8 51 L 8 13 C 8 10.242188 10.242188 8 13 8 Z M 12 12 C 11.449219 12 11 12.449219 11 13 L 11 15 C 11 15.550781 11.449219 16 12 16 C 12.550781 16 13 15.550781 13 15 L 13 13 C 13 12.449219 12.550781 12 12 12 Z M 17 12 C 16.449219 12 16 12.449219 16 13 L 16 15 C 16 15.550781 16.449219 16 17 16 C 17.550781 16 18 15.550781 18 15 L 18 13 C 18 12.449219 17.550781 12 17 12 Z M 22 12 C 21.449219 12 21 12.449219 21 13 L 21 15 C 21 15.550781 21.449219 16 22 16 C 22.550781 16 23 15.550781 23 15 L 23 13 C 23 12.449219 22.550781 12 22 12 Z M 27 12 C 26.449219 12 26 12.449219 26 13 L 26 15 C 26 15.550781 26.449219 16 27 16 C 27.550781 16 28 15.550781 28 15 L 28 13 C 28 12.449219 27.550781 12 27 12 Z M 32 12 C 31.449219 12 31 12.449219 31 13 L 31 15 C 31 15.550781 31.449219 16 32 16 C 32.550781 16 33 15.550781 33 15 L 33 13 C 33 12.449219 32.550781 12 32 12 Z M 37 12 C 36.449219 12 36 12.449219 36 13 L 36 15 C 36 15.550781 36.449219 16 37 16 C 37.550781 16 38 15.550781 38 15 L 38 13 C 38 12.449219 37.550781 12 37 12 Z M 42 12 C 41.449219 12 41 12.449219 41 13 L 41 15 C 41 15.550781 41.449219 16 42 16 C 42.550781 16 43 15.550781 43 15 L 43 13 C 43 12.449219 42.550781 12 42 12 Z M 47 12 C 46.449219 12 46 12.449219 46 13 L 46 15 C 46 15.550781 46.449219 16 47 16 C 47.550781 16 48 15.550781 48 15 L 48 13 C 48 12.449219 47.550781 12 47 12 Z M 52 12 C 51.449219 12 51 12.449219 51 13 L 51 15 C 51 15.550781 51.449219 16 52 16 C 52.550781 16 53 15.550781 53 15 L 53 13 C 53 12.449219 52.550781 12 52 12 Z M 28.667969 18.84375 C 27.5625 18.84375 26.667969 19.738281 26.667969 20.84375 L 26.667969 21.707031 C 26.652344 21.855469 26.636719 22.007813 26.625 22.15625 C 26.460938 23.917969 26.34375 25.191406 22.351563 26.5625 C 21.542969 26.835938 21 27.597656 21 28.453125 L 21 32.257813 C 21 33.363281 21.894531 34.257813 23 34.257813 L 25.695313 34.257813 L 25.695313 41.730469 C 25.695313 48.054688 28.492188 51.261719 34.011719 51.261719 C 34.125 51.261719 34.242188 51.261719 34.359375 51.257813 C 36.554688 51.25 40.566406 50.152344 41.664063 48.503906 C 41.976563 48.035156 42.078125 47.457031 41.9375 46.910156 L 40.96875 43.027344 C 40.792969 42.328125 40.257813 41.773438 39.5625 41.582031 C 39.386719 41.53125 39.207031 41.511719 39.03125 41.511719 C 38.507813 41.511719 37.996094 41.714844 37.613281 42.09375 C 37.265625 42.445313 36.898438 42.484375 36.195313 42.484375 C 35.4375 42.484375 35.363281 41.65625 35.363281 41.648438 L 35.363281 34.175781 L 39.03125 34.175781 C 40.132813 34.175781 41.03125 33.28125 41.03125 32.175781 L 41.03125 28.375 C 41.03125 27.269531 40.132813 26.375 39.03125 26.375 L 35.363281 26.375 L 35.363281 20.84375 C 35.363281 19.738281 34.46875 18.84375 33.363281 18.84375 Z M 28.667969 20.84375 L 33.359375 20.84375 L 33.359375 28.375 L 39.03125 28.375 L 39.03125 32.175781 L 33.359375 32.175781 L 33.359375 41.648438 C 33.359375 42.863281 34.332031 44.484375 36.195313 44.484375 C 36.925781 44.484375 38.054688 44.484375 39.027344 43.511719 L 40 47.394531 C 39.515625 48.125 36.4375 49.257813 34.332031 49.257813 C 34.222656 49.261719 34.117188 49.261719 34.011719 49.261719 C 28.085938 49.261719 27.695313 44.832031 27.695313 41.730469 L 27.695313 32.257813 L 23 32.257813 L 23 28.453125 C 28.667969 26.511719 28.425781 24 28.667969 21.8125 Z"/></svg>