<svg fill="#dbf2ff" xmlns="http://www.w3.org/2000/svg"  viewBox="0 0 64 64" width="128px" height="128px"><path d="M 13 6 C 9.140625 6 6 9.140625 6 13 L 6 51 C 6 54.859375 9.140625 58 13 58 L 51 58 C 54.859375 58 58 54.859375 58 51 L 58 13 C 58 9.140625 54.859375 6 51 6 Z M 13 8 L 51 8 C 53.757813 8 56 10.242188 56 13 L 56 51 C 56 53.757813 53.757813 56 51 56 L 13 56 C 10.242188 56 8 53.757813 8 51 L 8 13 C 8 10.242188 10.242188 8 13 8 Z M 12 12 C 11.449219 12 11 12.445313 11 13 L 11 15 C 11 15.554688 11.449219 16 12 16 C 12.550781 16 13 15.554688 13 15 L 13 13 C 13 12.445313 12.550781 12 12 12 Z M 17 12 C 16.449219 12 16 12.445313 16 13 L 16 15 C 16 15.554688 16.449219 16 17 16 C 17.550781 16 18 15.554688 18 15 L 18 13 C 18 12.445313 17.550781 12 17 12 Z M 22 12 C 21.449219 12 21 12.445313 21 13 L 21 15 C 21 15.554688 21.449219 16 22 16 C 22.550781 16 23 15.554688 23 15 L 23 13 C 23 12.445313 22.550781 12 22 12 Z M 27 12 C 26.449219 12 26 12.445313 26 13 L 26 15 C 26 15.554688 26.449219 16 27 16 C 27.550781 16 28 15.554688 28 15 L 28 13 C 28 12.445313 27.550781 12 27 12 Z M 32 12 C 31.449219 12 31 12.445313 31 13 L 31 15 C 31 15.554688 31.449219 16 32 16 C 32.550781 16 33 15.554688 33 15 L 33 13 C 33 12.445313 32.550781 12 32 12 Z M 37 12 C 36.449219 12 36 12.445313 36 13 L 36 15 C 36 15.554688 36.449219 16 37 16 C 37.550781 16 38 15.554688 38 15 L 38 13 C 38 12.445313 37.550781 12 37 12 Z M 42 12 C 41.449219 12 41 12.445313 41 13 L 41 15 C 41 15.554688 41.449219 16 42 16 C 42.550781 16 43 15.554688 43 15 L 43 13 C 43 12.445313 42.550781 12 42 12 Z M 47 12 C 46.449219 12 46 12.445313 46 13 L 46 15 C 46 15.554688 46.449219 16 47 16 C 47.550781 16 48 15.554688 48 15 L 48 13 C 48 12.445313 47.550781 12 47 12 Z M 52 12 C 51.449219 12 51 12.445313 51 13 L 51 15 C 51 15.554688 51.449219 16 52 16 C 52.550781 16 53 15.554688 53 15 L 53 13 C 53 12.445313 52.550781 12 52 12 Z M 41 18 C 37.691406 18 35 20.691406 35 24 C 35 27.308594 37.691406 30 41 30 C 44.308594 30 47 27.308594 47 24 C 47 20.691406 44.308594 18 41 18 Z M 29 19 C 26.242188 19 24 21.242188 24 24 C 24 26.757813 26.242188 29 29 29 C 31.757813 29 34 26.757813 34 24 C 34 21.242188 31.757813 19 29 19 Z M 19 20 C 16.792969 20 15 21.792969 15 24 C 15 26.207031 16.792969 28 19 28 C 21.207031 28 23 26.207031 23 24 C 23 21.792969 21.207031 20 19 20 Z M 41 20 C 43.207031 20 45 21.792969 45 24 C 45 26.207031 43.207031 28 41 28 C 38.792969 28 37 26.207031 37 24 C 37 21.792969 38.792969 20 41 20 Z M 29 21 C 30.652344 21 32 22.347656 32 24 C 32 25.652344 30.652344 27 29 27 C 27.347656 27 26 25.652344 26 24 C 26 22.347656 27.347656 21 29 21 Z M 19 22 C 20.101563 22 21 22.898438 21 24 C 21 25.101563 20.101563 26 19 26 C 17.898438 26 17 25.101563 17 24 C 17 22.898438 17.898438 22 19 22 Z M 18.84375 30.007813 C 18.535156 29.992188 18.226563 29.996094 17.910156 30.027344 C 14.597656 30.316406 12 33.257813 12 36.714844 L 12 39 C 12 40.652344 13.347656 42 15 42 L 22 42 L 22 43 C 22 44.652344 23.347656 46 25 46 L 32 46 L 32 49 C 32 50.652344 33.347656 52 35 52 L 47 52 C 48.652344 52 50 50.652344 50 49 L 50 41.300781 C 50 38.933594 49.042969 36.566406 47.375 34.8125 C 45.652344 33 43.386719 32 41 32 L 40.996094 32 C 38.734375 32 36.601563 32.835938 34.960938 34.332031 C 33.707031 32.292969 31.46875 31 29 31 C 27.113281 31 25.324219 31.769531 24.027344 33.082031 C 22.917969 31.289063 20.984375 30.121094 18.84375 30.007813 Z M 18.488281 32 C 20.496094 32 22.285156 33.332031 22.828125 35.292969 C 22.9375 35.683594 23.269531 35.96875 23.671875 36.015625 C 24.066406 36.066406 24.460938 35.871094 24.660156 35.523438 C 25.550781 33.96875 27.214844 33 29 33 C 31.152344 33 33.054688 34.371094 33.738281 36.414063 C 33.855469 36.765625 34.15625 37.019531 34.519531 37.082031 C 34.882813 37.144531 35.25 37.003906 35.476563 36.714844 C 36.816406 34.988281 38.828125 34 41 34 C 42.835938 34 44.585938 34.777344 45.925781 36.1875 C 47.242188 37.574219 48 39.4375 48 41.300781 L 48 49 C 48 49.550781 47.550781 50 47 50 L 35 50 C 34.449219 50 34 49.550781 34 49 L 34 45 C 34 44.445313 33.550781 44 33 44 L 25 44 C 24.449219 44 24 43.550781 24 43 L 24 41 C 24 40.445313 23.550781 40 23 40 L 15 40 C 14.449219 40 14 39.550781 14 39 L 14 36.714844 C 14 34.285156 15.796875 32.222656 18.089844 32.019531 C 18.222656 32.007813 18.355469 32 18.488281 32 Z"/></svg>